<svg id="Layer_1" data-name="Layer 1" xmlns="http://www.w3.org/2000/svg" width="4.382in" height="3.941in" viewBox="0 0 315.523 283.741">
  <title>Lustre File System Architecture</title>
  <polyline points="0.5 44.454 0.5 222.314 74.448 222.314 74.448 44.454 0.5 44.454" fill="#efe96c" stroke="#000" stroke-miterlimit="10" fill-rule="evenodd"/>
  <polyline points="95.13 0.5 95.13 283.241 218.07 283.241 218.07 0.5 95.13 0.5" fill="#efe96c" stroke="#000" stroke-miterlimit="10"/>
  <polyline points="111.117 39.382 86.117 39.382 86.117 250.382 112.117 250.382" fill="none" stroke="#3953a4" stroke-miterlimit="10" stroke-width="2"/>
  <line x1="111.117" y1="78.382" x2="86.117" y2="78.382" fill="none" stroke="#3953a4" stroke-miterlimit="10" stroke-width="2"/>
  <line x1="111.117" y1="118.382" x2="86.117" y2="118.382" fill="none" stroke="#3953a4" stroke-miterlimit="10" stroke-width="2"/>
  <line x1="111.117" y1="138.382" x2="86.117" y2="138.382" fill="none" stroke="#3953a4" stroke-miterlimit="10" stroke-width="2"/>
  <line x1="111.117" y1="168.382" x2="86.117" y2="168.382" fill="none" stroke="#3953a4" stroke-miterlimit="10" stroke-width="2"/>
  <line x1="111.117" y1="188.382" x2="86.117" y2="188.382" fill="none" stroke="#3953a4" stroke-miterlimit="10" stroke-width="2"/>
  <line x1="111.117" y1="229.382" x2="86.117" y2="229.382" fill="none" stroke="#3953a4" stroke-miterlimit="10" stroke-width="2"/>
  <line x1="86.117" y1="201.382" x2="63.117" y2="201.382" fill="none" stroke="#3953a4" stroke-miterlimit="10" stroke-width="2"/>
  <line x1="86.117" y1="172.382" x2="63.117" y2="172.382" fill="none" stroke="#3953a4" stroke-miterlimit="10" stroke-width="2"/>
  <line x1="86.117" y1="113.382" x2="63.117" y2="113.382" fill="none" stroke="#3953a4" stroke-miterlimit="10" stroke-width="2"/>
  <line x1="86.117" y1="84.382" x2="63.117" y2="84.382" fill="none" stroke="#3953a4" stroke-miterlimit="10" stroke-width="2"/>
  <line x1="147.307" y1="44.806" x2="181.2" y2="56.823" fill="none" stroke="#000" stroke-miterlimit="10" stroke-width="2"/>
  <line x1="141.117" y1="115.382" x2="178.117" y2="115.382" fill="none" stroke="#000" stroke-miterlimit="10" stroke-width="2"/>
  <line x1="141.117" y1="141.382" x2="178.117" y2="141.382" fill="none" stroke="#000" stroke-miterlimit="10" stroke-width="2"/>
  <line x1="141.145" y1="119.842" x2="178.427" y2="135.556" fill="none" stroke="#c33" stroke-miterlimit="10" stroke-width="2"/>
  <line x1="178.427" y1="119.842" x2="141.145" y2="135.556" fill="none" stroke="#c33" stroke-miterlimit="10" stroke-width="2"/>
  <line x1="180.427" y1="66.842" x2="143.145" y2="82.556" fill="none" stroke="#c33" stroke-miterlimit="10" stroke-width="2"/>
  <line x1="67.117" y1="241.882" x2="85.117" y2="241.882" fill="none" stroke="#000" stroke-miterlimit="10"/>
  <line x1="165.617" y1="114.382" x2="165.617" y2="73.382" fill="none" stroke="#000" stroke-miterlimit="10"/>
  <line x1="141.117" y1="167.382" x2="178.117" y2="167.382" fill="none" stroke="#000" stroke-miterlimit="10" stroke-width="2"/>
  <line x1="141.117" y1="193.382" x2="178.117" y2="193.382" fill="none" stroke="#000" stroke-miterlimit="10" stroke-width="2"/>
  <line x1="141.145" y1="171.842" x2="178.427" y2="187.556" fill="none" stroke="#c33" stroke-miterlimit="10" stroke-width="2"/>
  <line x1="178.427" y1="171.842" x2="141.145" y2="187.556" fill="none" stroke="#c33" stroke-miterlimit="10" stroke-width="2"/>
  <line x1="141.117" y1="228.382" x2="178.117" y2="228.382" fill="none" stroke="#000" stroke-miterlimit="10" stroke-width="2"/>
  <line x1="141.117" y1="254.382" x2="178.117" y2="254.382" fill="none" stroke="#000" stroke-miterlimit="10" stroke-width="2"/>
  <line x1="141.145" y1="232.842" x2="178.427" y2="248.556" fill="none" stroke="#c33" stroke-miterlimit="10" stroke-width="2"/>
  <line x1="178.427" y1="232.842" x2="141.145" y2="248.556" fill="none" stroke="#c33" stroke-miterlimit="10" stroke-width="2"/>
  <polyline points="9.986 105.406 9.986 123.392 65.958 123.392 65.958 105.406 9.986 105.406" fill="#62b3e4" stroke="#000" stroke-miterlimit="10"/>
  <polyline points="9.986 75.43 9.986 93.416 65.958 93.416 65.958 75.43 9.986 75.43" fill="#62b3e4" stroke="#000" stroke-miterlimit="10"/>
  <polyline points="9.986 163.361 9.986 181.346 65.958 181.346 65.958 163.361 9.986 163.361" fill="#62b3e4" stroke="#000" stroke-miterlimit="10"/>
  <polyline points="9.986 192.338 9.986 210.324 65.958 210.324 65.958 192.338 9.986 192.338" fill="#62b3e4" stroke="#000" stroke-miterlimit="10"/>
  <polyline points="108.868 34.467 108.868 59.447 144.85 59.447 144.85 34.467 108.868 34.467" fill="#9595c9" stroke="#000" stroke-miterlimit="10"/>
  <polyline points="108.868 66.442 108.868 90.423 144.85 90.423 144.85 66.442 108.868 66.442" fill="#9595c9" stroke="#000" stroke-miterlimit="10"/>
  <polyline points="111.866 109.283 111.866 123.272 141.852 123.272 141.852 109.283 111.866 109.283" fill="#4d9c45" stroke="#000" stroke-miterlimit="10"/>
  <polyline points="111.866 132.516 111.866 145.506 141.852 145.506 141.852 132.516 111.866 132.516" fill="#4d9c45" stroke="#000" stroke-miterlimit="10"/>
  <g>
    <path d="M208.624,110.129v11.4c0,1.519-6.76,2.751-15.1,2.751s-15.1-1.232-15.1-2.751v-11.4" fill="#4d9c45" stroke="#000" stroke-miterlimit="10"/>
    <ellipse cx="193.526" cy="110.129" rx="15.098" ry="2.751" fill="#4d9c45" stroke="#000" stroke-miterlimit="10"/>
  </g>
  <g>
    <path d="M208.624,54.072v16.4c0,1.519-6.76,2.751-15.1,2.751s-15.1-1.232-15.1-2.751v-16.4" fill="#9595c9" stroke="#000" stroke-miterlimit="10"/>
    <ellipse cx="193.526" cy="54.072" rx="15.098" ry="2.751" fill="#9595c9" stroke="#000" stroke-miterlimit="10"/>
  </g>
  <g>
    <path d="M208.624,132.313v11.4c0,1.519-6.76,2.751-15.1,2.751s-15.1-1.232-15.1-2.751v-11.4" fill="#4d9c45" stroke="#000" stroke-miterlimit="10"/>
    <ellipse cx="193.526" cy="132.313" rx="15.098" ry="2.751" fill="#4d9c45" stroke="#000" stroke-miterlimit="10"/>
  </g>
  <g>
    <polyline points="101.706 103.814 101.706 99.814 105.706 99.814" fill="none" stroke="#000" stroke-miterlimit="10"/>
    <line x1="111.804" y1="99.814" x2="137.215" y2="99.814" fill="none" stroke="#000" stroke-miterlimit="10" stroke-dasharray="8.131 6.099 8.131 6.099"/>
    <line x1="140.264" y1="99.814" x2="307.974" y2="99.814" fill="none" stroke="#000" stroke-miterlimit="10" stroke-dasharray="8.131 6.099 8.131 6.099 8.131 6.099"/>
    <polyline points="311.023 99.814 315.023 99.814 315.023 103.814" fill="none" stroke="#000" stroke-miterlimit="10"/>
    <line x1="315.023" y1="107.537" x2="315.023" y2="123.048" fill="none" stroke="#000" stroke-miterlimit="10" stroke-dasharray="4.964 3.723 4.964 3.723"/>
    <line x1="315.023" y1="124.909" x2="315.023" y2="149.106" fill="none" stroke="#000" stroke-miterlimit="10" stroke-dasharray="4.964 3.723 4.964 3.723 4.964 3.723"/>
    <polyline points="315.023 150.967 315.023 154.967 311.023 154.967" fill="none" stroke="#000" stroke-miterlimit="10"/>
    <line x1="304.925" y1="154.967" x2="279.514" y2="154.967" fill="none" stroke="#000" stroke-miterlimit="10" stroke-dasharray="8.131 6.099 8.131 6.099"/>
    <line x1="276.465" y1="154.967" x2="108.755" y2="154.967" fill="none" stroke="#000" stroke-miterlimit="10" stroke-dasharray="8.131 6.099 8.131 6.099 8.131 6.099"/>
    <polyline points="105.706 154.967 101.706 154.967 101.706 150.967" fill="none" stroke="#000" stroke-miterlimit="10"/>
    <line x1="101.706" y1="147.245" x2="101.706" y2="131.734" fill="none" stroke="#000" stroke-miterlimit="10" stroke-dasharray="4.964 3.723 4.964 3.723"/>
    <line x1="101.706" y1="129.872" x2="101.706" y2="105.675" fill="none" stroke="#000" stroke-miterlimit="10" stroke-dasharray="4.964 3.723 4.964 3.723 4.964 3.723"/>
  </g>
  <polyline points="111.866 161.283 111.866 175.272 141.852 175.272 141.852 161.283 111.866 161.283" fill="#4d9c45" stroke="#000" stroke-miterlimit="10"/>
  <polyline points="111.866 184.516 111.866 197.506 141.852 197.506 141.852 184.516 111.866 184.516" fill="#4d9c45" stroke="#000" stroke-miterlimit="10"/>
  <g>
    <path d="M208.624,162.129v11.4c0,1.519-6.76,2.751-15.1,2.751s-15.1-1.232-15.1-2.751v-11.4" fill="#4d9c45" stroke="#000" stroke-miterlimit="10"/>
    <ellipse cx="193.526" cy="162.129" rx="15.098" ry="2.751" fill="#4d9c45" stroke="#000" stroke-miterlimit="10"/>
  </g>
  <g>
    <path d="M208.624,184.313v11.4c0,1.519-6.76,2.751-15.1,2.751s-15.1-1.232-15.1-2.751v-11.4" fill="#4d9c45" stroke="#000" stroke-miterlimit="10"/>
    <ellipse cx="193.526" cy="184.313" rx="15.098" ry="2.751" fill="#4d9c45" stroke="#000" stroke-miterlimit="10"/>
  </g>
  <polyline points="111.866 222.283 111.866 236.272 141.852 236.272 141.852 222.283 111.866 222.283" fill="#4d9c45" stroke="#000" stroke-miterlimit="10"/>
  <polyline points="111.866 245.516 111.866 258.506 141.852 258.506 141.852 245.516 111.866 245.516" fill="#4d9c45" stroke="#000" stroke-miterlimit="10"/>
  <g>
    <path d="M208.624,223.129v11.4c0,1.519-6.76,2.751-15.1,2.751s-15.1-1.232-15.1-2.751v-11.4" fill="#4d9c45" stroke="#000" stroke-miterlimit="10"/>
    <ellipse cx="193.526" cy="223.129" rx="15.098" ry="2.751" fill="#4d9c45" stroke="#000" stroke-miterlimit="10"/>
  </g>
  <g>
    <path d="M208.624,245.313v11.4c0,1.519-6.76,2.751-15.1,2.751s-15.1-1.232-15.1-2.751v-11.4" fill="#4d9c45" stroke="#000" stroke-miterlimit="10"/>
    <ellipse cx="193.526" cy="245.313" rx="15.098" ry="2.751" fill="#4d9c45" stroke="#000" stroke-miterlimit="10"/>
  </g>
  <rect x="161.481" y="79.318" width="7.703" height="16.947" fill="#efe96c"/>
  <text transform="translate(182.764 143.375)" font-size="7" fill="#010101" font-family="Verdana">OST 2</text>
  <text transform="translate(15.747 116.397)" font-size="7" fill="#010101" font-family="Verdana">Lustre Client</text>
  <text transform="translate(15.747 87.421)" font-size="7" fill="#010101" font-family="Verdana">Lustre Client</text>
  <text transform="translate(15.747 175.351)" font-size="7" fill="#010101" font-family="Verdana">Lustre Client</text>
  <text transform="translate(15.747 204.327)" font-size="7" fill="#010101" font-family="Verdana">Lustre Client</text>
  <text transform="translate(110.117 25.48)" font-size="7" fill="#010101" font-family="Verdana">Metadata<tspan x="0" y="7">Ser</tspan><tspan x="11.942" y="7">v</tspan><tspan x="16.024" y="7">ers (MDS)</tspan></text>
  <text transform="translate(114.872 44.46)" font-size="7" fill="#010101" font-family="Verdana">MDS 1<tspan x="-2.075" y="8.4">(acti</tspan><tspan x="13.635" y="8.4">v</tspan><tspan x="17.715" y="8.4">e)</tspan></text>
  <text transform="translate(114.872 75.437)" font-size="7" fill="#010101" font-family="Verdana">MDS 2<tspan x="-4.7" y="8.4">(passi</tspan><tspan x="16.259" y="8.4">v</tspan><tspan x="20.34" y="8.4">e)</tspan></text>
  <text transform="translate(181.086 40.47)" font-size="7" fill="#010101" font-family="Verdana">Metadata<tspan x="0" y="7">T</tspan><tspan x="3.493" y="7">arget</tspan></text>
  <text transform="translate(100.497 272.273)" font-size="7" fill="#010101" font-family="Verdana">Object Sto<tspan x="37.109" y="0">r</tspan><tspan x="39.973" y="0">age</tspan><tspan x="0" y="8">Ser</tspan><tspan x="11.942" y="8">v</tspan><tspan x="16.024" y="8">ers (O</tspan><tspan x="37.977" y="8">S</tspan><tspan x="42.687" y="8">S)</tspan></text>
  <text transform="translate(182.764 120.397)" font-size="7" fill="#010101" font-family="Verdana">OST 1</text>
  <text transform="translate(115.898 119.518)" font-size="7" fill="#010101" font-family="Verdana">O<tspan x="5.51" y="0">S</tspan><tspan x="10.22" y="0">S 1</tspan></text>
  <text transform="translate(115.898 142.251)" font-size="7" fill="#010101" font-family="Verdana">O<tspan x="5.51" y="0">S</tspan><tspan x="10.22" y="0">S 2</tspan></text>
  <text transform="translate(182.763 194.344)" font-size="7" fill="#010101" font-family="Verdana">OST 4</text>
  <text transform="translate(182.763 172.351)" font-size="7" fill="#010101" font-family="Verdana">OST 3</text>
  <text transform="translate(115.898 171.358)" font-size="7" fill="#010101" font-family="Verdana">O<tspan x="5.51" y="0">S</tspan><tspan x="10.22" y="0">S 3</tspan></text>
  <text transform="translate(115.898 193.336)" font-size="7" fill="#010101" font-family="Verdana">O<tspan x="5.51" y="0">S</tspan><tspan x="10.22" y="0">S 4</tspan></text>
  <text transform="translate(182.917 255.288)" font-size="7" fill="#010101" font-family="Verdana">OST y</text>
  <text transform="translate(182.917 234.296)" font-size="7" fill="#010101" font-family="Verdana">OST x</text>
  <text transform="translate(116.051 232.303)" font-size="7" fill="#010101" font-family="Verdana">O<tspan x="5.51" y="0">S</tspan><tspan x="10.22" y="0">S x</tspan></text>
  <text transform="translate(116.051 254.28)" font-size="7" fill="#010101" font-family="Verdana">O<tspan x="5.51" y="0">S</tspan><tspan x="10.22" y="0">S y</tspan></text>
  <text transform="translate(219.058 119.397)" font-size="7" fill="#010101" font-family="Verdana">O<tspan x="5.51" y="0">S</tspan><tspan x="10.22" y="0">S 1: primary for OST 1, </tspan></text>
  <text transform="translate(219.058 140.382)" font-size="7" fill="#010101" font-family="Verdana">O<tspan x="5.51" y="0">S</tspan><tspan x="10.22" y="0">S 2: primary for OST 2, </tspan></text>
  <text transform="translate(163.162 272.273)" font-size="7" fill="#010101" font-family="Verdana">Object Sto<tspan x="37.109" y="0">r</tspan><tspan x="39.973" y="0">age</tspan><tspan x="0" y="8">T</tspan><tspan x="3.493" y="8">argets (OST)</tspan></text>
  <text transform="translate(37.164 237.305)" font-size="7" fill="#010101" font-family="Verdana">Lustre<tspan x="0" y="7">Network </tspan></text>
  <text transform="translate(245.05 128.39)" font-size="7" fill="#f36f42" font-family="Verdana">backup for OST 2</text>
  <text transform="translate(245.05 149.374)" font-size="7" fill="#f36f42" font-family="Verdana">backup for OST 1</text>
  <text transform="translate(122.109 12.504)" font-size="9" fill="#010101" font-family="Verdana">Lustre File <tspan x="49.944" y="0">S</tspan><tspan x="55.965" y="0">ystem</tspan></text>
  <text transform="translate(163.615 86.109)" font-size="7" fill="#010101" font-family="Verdana">FC, <tspan x="13.918" y="0">S</tspan><tspan x="18.635" y="0">A</tspan><tspan x="23.386" y="0">S</tspan><tspan x="28.103" y="0">,</tspan><tspan x="0" y="8.4">or Infiniband</tspan></text>
  <text/>  <text transform="translate(230.058 109.405)" font-size="7" fill="#010101" font-family="Verdana">Acti<tspan x="13.111" y="0">v</tspan><tspan x="17.192" y="0">e/Acti</tspan><tspan x="37.653" y="0">v</tspan><tspan x="41.734" y="0">e </tspan><tspan x="48.364" y="0">P</tspan><tspan x="52.415" y="0">air:</tspan></text>
  <text transform="translate(185.804 66.444)" font-size="7" fill="#010101" font-family="Verdana">M<tspan x="5.9" y="0">D</tspan><tspan x="11.122" y="0">T</tspan></text>
  <text transform="translate(7.052 54.444)" font-size="9" fill="#010101" font-family="Verdana">Lustre Clients</text>
  <circle cx="37.972" cy="132.952" r="3.12" fill="#010101"/>
  <circle cx="37.972" cy="142.875" r="3.12" fill="#010101"/>
  <circle cx="37.972" cy="152.798" r="3.12" fill="#010101"/>
  <circle cx="126.859" cy="203.579" r="2.808" fill="#010101"/>
  <circle cx="126.859" cy="210.508" r="2.808" fill="#010101"/>
  <circle cx="126.859" cy="217.437" r="2.808" fill="#010101"/>
</svg>
